<?xml version="1.0" encoding="UTF-8" standalone="no"?>
<!DOCTYPE svg PUBLIC "-//W3C//DTD SVG 1.1//EN"
 "http://www.w3.org/Graphics/SVG/1.1/DTD/svg11.dtd">
<!-- Generated by graphviz version 7.1.0 (20230121.1956)
 -->
<!-- Pages: 1 -->
<svg width="912pt" height="404pt"
 viewBox="0.00 0.00 912.20 404.00" xmlns="http://www.w3.org/2000/svg" xmlns:xlink="http://www.w3.org/1999/xlink">
<g id="graph0" class="graph" transform="scale(1 1) rotate(0) translate(4 400)">
<polygon fill="white" stroke="none" points="-4,4 -4,-400 908.2,-400 908.2,4 -4,4"/>
<!-- [root] oci_core_subnet.dev (expand) -->
<g id="node1" class="node">
<title>[root] oci_core_subnet.dev (expand)</title>
<polygon fill="none" stroke="black" points="720.77,-252 586.77,-252 586.77,-216 720.77,-216 720.77,-252"/>
<text text-anchor="middle" x="653.77" y="-230.3" font-family="Times New Roman,serif" font-size="14.00">oci_core_subnet.dev</text>
</g>
<!-- [root] oci_core_vcn.internal (expand) -->
<g id="node2" class="node">
<title>[root] oci_core_vcn.internal (expand)</title>
<polygon fill="none" stroke="black" points="488.27,-180 351.27,-180 351.27,-144 488.27,-144 488.27,-180"/>
<text text-anchor="middle" x="419.77" y="-158.3" font-family="Times New Roman,serif" font-size="14.00">oci_core_vcn.internal</text>
</g>
<!-- [root] oci_core_subnet.dev (expand)&#45;&gt;[root] oci_core_vcn.internal (expand) -->
<g id="edge1" class="edge">
<title>[root] oci_core_subnet.dev (expand)&#45;&gt;[root] oci_core_vcn.internal (expand)</title>
<path fill="none" stroke="black" d="M595.32,-215.52C562.95,-205.83 522.53,-193.74 488.63,-183.6"/>
<polygon fill="black" stroke="black" points="489.91,-180.33 479.32,-180.82 487.9,-187.03 489.91,-180.33"/>
</g>
<!-- [root] provider[&quot;registry.terraform.io/hashicorp/oci&quot;] -->
<g id="node3" class="node">
<title>[root] provider[&quot;registry.terraform.io/hashicorp/oci&quot;]</title>
<polygon fill="none" stroke="black" points="252.77,-108 0.23,-90 252.77,-72 505.3,-90 252.77,-108"/>
<text text-anchor="middle" x="252.77" y="-86.3" font-family="Times New Roman,serif" font-size="14.00">provider[&quot;registry.terraform.io/hashicorp/oci&quot;]</text>
</g>
<!-- [root] oci_core_vcn.internal (expand)&#45;&gt;[root] provider[&quot;registry.terraform.io/hashicorp/oci&quot;] -->
<g id="edge2" class="edge">
<title>[root] oci_core_vcn.internal (expand)&#45;&gt;[root] provider[&quot;registry.terraform.io/hashicorp/oci&quot;]</title>
<path fill="none" stroke="black" d="M378.06,-143.52C353.99,-133.43 323.68,-120.72 298.9,-110.34"/>
<polygon fill="black" stroke="black" points="300.27,-107.12 289.7,-106.48 297.57,-113.57 300.27,-107.12"/>
</g>
<!-- [root] var.compartment_id -->
<g id="node4" class="node">
<title>[root] var.compartment_id</title>
<polygon fill="none" stroke="black" points="646.27,-108 523.27,-108 523.27,-72 652.27,-72 652.27,-102 646.27,-108"/>
<polyline fill="none" stroke="black" points="646.27,-108 646.27,-102"/>
<polyline fill="none" stroke="black" points="652.27,-102 646.27,-102"/>
<text text-anchor="middle" x="587.77" y="-86.3" font-family="Times New Roman,serif" font-size="14.00">var.compartment_id</text>
</g>
<!-- [root] oci_core_vcn.internal (expand)&#45;&gt;[root] var.compartment_id -->
<g id="edge3" class="edge">
<title>[root] oci_core_vcn.internal (expand)&#45;&gt;[root] var.compartment_id</title>
<path fill="none" stroke="black" d="M461.73,-143.52C484.06,-134.21 511.74,-122.68 535.46,-112.79"/>
<polygon fill="black" stroke="black" points="536.77,-116.04 544.66,-108.96 534.08,-109.58 536.77,-116.04"/>
</g>
<!-- [root] var.region -->
<g id="node5" class="node">
<title>[root] var.region</title>
<polygon fill="none" stroke="black" points="282.77,-36 216.77,-36 216.77,0 288.77,0 288.77,-30 282.77,-36"/>
<polyline fill="none" stroke="black" points="282.77,-36 282.77,-30"/>
<polyline fill="none" stroke="black" points="288.77,-30 282.77,-30"/>
<text text-anchor="middle" x="252.77" y="-14.3" font-family="Times New Roman,serif" font-size="14.00">var.region</text>
</g>
<!-- [root] provider[&quot;registry.terraform.io/hashicorp/oci&quot;]&#45;&gt;[root] var.region -->
<g id="edge7" class="edge">
<title>[root] provider[&quot;registry.terraform.io/hashicorp/oci&quot;]&#45;&gt;[root] var.region</title>
<path fill="none" stroke="black" d="M252.77,-71.7C252.77,-64.41 252.77,-55.73 252.77,-47.54"/>
<polygon fill="black" stroke="black" points="256.27,-47.62 252.77,-37.62 249.27,-47.62 256.27,-47.62"/>
</g>
<!-- [root] output.vcn_cidr (expand) -->
<g id="node6" class="node">
<title>[root] output.vcn_cidr (expand)</title>
<ellipse fill="none" stroke="black" cx="262.77" cy="-306" rx="126.98" ry="18"/>
<text text-anchor="middle" x="262.77" y="-302.3" font-family="Times New Roman,serif" font-size="14.00">[root] output.vcn_cidr (expand)</text>
</g>
<!-- [root] output.vcn_cidr (expand)&#45;&gt;[root] oci_core_vcn.internal (expand) -->
<g id="edge4" class="edge">
<title>[root] output.vcn_cidr (expand)&#45;&gt;[root] oci_core_vcn.internal (expand)</title>
<path fill="none" stroke="black" d="M261.85,-287.83C261.73,-268.2 264.52,-236.18 281.77,-216 296.89,-198.31 318.6,-186.5 340.35,-178.63"/>
<polygon fill="black" stroke="black" points="341.19,-182.04 349.57,-175.55 338.97,-175.4 341.19,-182.04"/>
</g>
<!-- [root] output.vcn_state (expand) -->
<g id="node7" class="node">
<title>[root] output.vcn_state (expand)</title>
<ellipse fill="none" stroke="black" cx="419.77" cy="-234" rx="129.18" ry="18"/>
<text text-anchor="middle" x="419.77" y="-230.3" font-family="Times New Roman,serif" font-size="14.00">[root] output.vcn_state (expand)</text>
</g>
<!-- [root] output.vcn_state (expand)&#45;&gt;[root] oci_core_vcn.internal (expand) -->
<g id="edge5" class="edge">
<title>[root] output.vcn_state (expand)&#45;&gt;[root] oci_core_vcn.internal (expand)</title>
<path fill="none" stroke="black" d="M419.77,-215.7C419.77,-208.41 419.77,-199.73 419.77,-191.54"/>
<polygon fill="black" stroke="black" points="423.27,-191.62 419.77,-181.62 416.27,-191.62 423.27,-191.62"/>
</g>
<!-- [root] provider[&quot;registry.terraform.io/hashicorp/oci&quot;] (close) -->
<g id="node8" class="node">
<title>[root] provider[&quot;registry.terraform.io/hashicorp/oci&quot;] (close)</title>
<ellipse fill="none" stroke="black" cx="674.77" cy="-306" rx="229.36" ry="18"/>
<text text-anchor="middle" x="674.77" y="-302.3" font-family="Times New Roman,serif" font-size="14.00">[root] provider[&quot;registry.terraform.io/hashicorp/oci&quot;] (close)</text>
</g>
<!-- [root] provider[&quot;registry.terraform.io/hashicorp/oci&quot;] (close)&#45;&gt;[root] oci_core_subnet.dev (expand) -->
<g id="edge6" class="edge">
<title>[root] provider[&quot;registry.terraform.io/hashicorp/oci&quot;] (close)&#45;&gt;[root] oci_core_subnet.dev (expand)</title>
<path fill="none" stroke="black" d="M669.58,-287.7C667.34,-280.24 664.66,-271.32 662.16,-262.97"/>
<polygon fill="black" stroke="black" points="665.56,-262.13 659.33,-253.55 658.86,-264.14 665.56,-262.13"/>
</g>
<!-- [root] root -->
<g id="node9" class="node">
<title>[root] root</title>
<ellipse fill="none" stroke="black" cx="417.77" cy="-378" rx="49.29" ry="18"/>
<text text-anchor="middle" x="417.77" y="-374.3" font-family="Times New Roman,serif" font-size="14.00">[root] root</text>
</g>
<!-- [root] root&#45;&gt;[root] output.vcn_cidr (expand) -->
<g id="edge8" class="edge">
<title>[root] root&#45;&gt;[root] output.vcn_cidr (expand)</title>
<path fill="none" stroke="black" d="M387.51,-363.34C365.47,-353.38 335.17,-339.7 309.96,-328.31"/>
<polygon fill="black" stroke="black" points="311.43,-325.14 300.88,-324.21 308.55,-331.52 311.43,-325.14"/>
</g>
<!-- [root] root&#45;&gt;[root] output.vcn_state (expand) -->
<g id="edge9" class="edge">
<title>[root] root&#45;&gt;[root] output.vcn_state (expand)</title>
<path fill="none" stroke="black" d="M418.01,-359.59C418.35,-335.61 418.96,-292.14 419.37,-263.42"/>
<polygon fill="black" stroke="black" points="422.86,-263.67 419.51,-253.62 415.87,-263.57 422.86,-263.67"/>
</g>
<!-- [root] root&#45;&gt;[root] provider[&quot;registry.terraform.io/hashicorp/oci&quot;] (close) -->
<g id="edge10" class="edge">
<title>[root] root&#45;&gt;[root] provider[&quot;registry.terraform.io/hashicorp/oci&quot;] (close)</title>
<path fill="none" stroke="black" d="M456.52,-366.44C495.03,-355.96 555.01,-339.62 602.36,-326.72"/>
<polygon fill="black" stroke="black" points="602.99,-330.18 611.71,-324.17 601.15,-323.43 602.99,-330.18"/>
</g>
</g>
</svg>
